# xmcd
#
# Track frame offsets:
#	150
#	18150
#	35857
#	45372
#	57479
#	68932
#	85048
#	104329
#	115253
#	127524
#	144258
#	160058
#	172425
#	189234
#	206970
#	221431
#	231753
#	257097
#	272017
#	285972
#	302262
#
# Disc length: 4249 seconds
#
# Revision: 0
# Processed by: cddbd v1.5.2PL0 Copyright (c) Steve Scherf et al.
# Submitted via: audiograbber 1.83.01
#
DISCID=21109715
DTITLE=Various Artist - Nashville Music Express Volume 24
DYEAR=1900
DGENRE=Country
TTITLE0=Willie Nelson and Curtis Porter - Nothing's Changed, Nothing New
TTITLE1=Wayne Mullin - After The Lovin'
TTITLE2=Allen Hunter - Cowboy Kind Of Guy
TTITLE3=Joe Cooksey - Folsom Prison Blues
TTITLE4=Billy Joe Burnette - Give Me The Right
TTITLE5=Gregory Van Hamil - Green River
TTITLE6=Danny Farcloth - Hand-N-Hand
TTITLE7=Bobby Caraway - Hey, Hey, Little Girl
TTITLE8=Cathilee Harmon - How Much Is That Doggie In The Window
TTITLE9=Amanda Denham - Hotel Hallelujah
TTITLE10=Jimmy Snyder - If All Of The Magid Is Gone
TTITLE11=Kelly Sowell - Lovesick Blues
TTITLE12=Bernie Anderson - Please Tell Me
TTITLE13=By The Way - Risen
TTITLE14=Raymond L. Boudreaux - River Of Fire
TTITLE15=Johnny Eagle - Texas Sweetheart
TTITLE16=Nikki Noel - Thank You
TTITLE17=Piper Kirk - The Lonely Of Living With You
TTITLE18=Jodi Ann Sullivan - The Teddy Bear Song
TTITLE19=Jim Lane - Tribute To Dad
TTITLE20=Billy Joe McGahey - X-Lawman
EXTD=
EXTT0=
EXTT1=
EXTT2=
EXTT3=
EXTT4=
EXTT5=
EXTT6=
EXTT7=
EXTT8=
EXTT9=
EXTT10=
EXTT11=
EXTT12=
EXTT13=
EXTT14=
EXTT15=
EXTT16=
EXTT17=
EXTT18=
EXTT19=
EXTT20=
PLAYORDER=
